<svg width="146.24036" height="102.48847" viewBox="0 0 146.24036 102.48847" version="1.1" xml:space="preserve" xmlns="http://www.w3.org/2000/svg" xmlns:svg="http://www.w3.org/2000/svg">
    <style>
        path { fill: #000000; }
        @media (prefers-color-scheme: dark) {
            path { fill: #ffffff; }
        }
    </style>
    <path d="M 17.843877,1.4558157e-4 C 15.764238,-0.00832114 13.700475,0.3525728 11.748103,1.0682752 8.2897127,2.2853662 5.4388093,4.4748071 3.2051827,7.6270728 1.0697172,10.676944 0,14.081095 0,17.841906 v 66.802686 c 0,4.879476 1.7311797,9.101724 5.1856015,12.658275 3.5602557,3.458393 7.7825025,5.185603 12.6582755,5.185603 4.985046,0 9.203853,-1.72721 12.661979,-5.181634 3.560256,-3.560256 5.335886,-7.782768 5.335886,-12.662244 V 72.498288 c 0.03784,-2.630769 2.747186,-1.938879 4.119324,0 2.561447,4.438943 8.559325,8.238119 14.336009,8.238119 5.776684,0 11.591998,-3.154647 14.335744,-8.238119 1.039555,-1.224764 3.969305,-3.314721 4.271725,0 v 12.146304 c 0,4.879476 1.726946,9.101724 5.181633,12.658275 3.56396,3.458393 7.780651,5.185603 12.660128,5.185603 4.981341,0 9.203853,-1.72721 12.661975,-5.181634 3.56026,-3.560256 5.33615,-7.782768 5.33615,-12.662244 V 17.841906 c 0,-3.760811 -1.11787,-7.164962 -3.35176,-10.2148332 C 103.2535,4.4711029 100.45657,2.2853662 97.002152,1.0682752 94.968817,0.35416031 92.935745,1.4558157e-4 90.90241,1.4558157e-4 85.410948,1.4558157e-4 80.78415,2.1353465 77.019635,6.4062776 L 58.912231,27.597684 c -0.40455,0.306125 -1.754198,2.636854 -4.619125,2.636854 -2.857253,0 -4.050796,-2.330464 -4.459051,-2.632885 L 31.570282,6.4062776 C 27.911865,2.1353465 23.335338,1.4558157e-4 17.843877,1.4558157e-4 Z M 130.68567,0.00199768 c -4.27066,0 -7.93172,1.52533252 -10.98027,4.57414542 -2.94827,2.9480061 -4.42201,6.5572109 -4.42201,10.8281419 0,4.270931 1.47374,7.931729 4.42201,10.980542 3.04855,2.948006 6.70961,4.422009 10.98027,4.422009 4.27094,0 7.9312,-1.474003 10.9824,-4.422009 3.04881,-3.048813 4.57229,-6.709611 4.57229,-10.980542 0,-4.270931 -1.52348,-7.8801358 -4.57229,-10.8281419 -3.0512,-3.0488129 -6.71146,-4.57414542 -10.9824,-4.57414542 z m 0.15055,33.85735532 c -4.27093,0 -7.93173,1.525597 -10.98054,4.57441 -3.04881,3.051194 -4.57229,6.711463 -4.57229,10.982394 v 37.670025 c 0,4.270667 1.52348,7.931465 4.57229,10.980278 3.0512,2.94827 6.71226,4.42201 10.98054,4.42201 4.27332,0 7.88384,-1.47374 10.83185,-4.42201 3.04881,-3.048813 4.57229,-6.709611 4.57229,-10.980278 V 49.416157 c 0,-4.273312 -1.52348,-7.933581 -4.57229,-10.982394 -2.95039,-3.048813 -6.56118,-4.57441 -10.83185,-4.57441 z" style="clip-rule:evenodd;fill:#ffffff;fill-opacity:1;fill-rule:nonzero;stroke-width:0.264585;stroke-linejoin:round;stroke-miterlimit:2" />
</svg>
